<svg width="16" height="16" viewBox="0 0 16 16" fill="none" xmlns="http://www.w3.org/2000/svg">
<path d="M9 3.41287e-06C5.25736 0.00408606 2.17843 2.94829 2.007 6.687L0.167997 9.445C0.00680214 9.68408 -0.043351 9.9811 0.0304071 10.2598C0.104165 10.5386 0.294655 10.7719 0.552997 10.9L2 11.618V13.5C2 14.8807 3.11929 16 4.5 16H7C8.65685 16 10 14.6569 10 13V8.723C9.21606 8.2704 8.83386 7.34768 9.06815 6.47331C9.30243 5.59895 10.0948 4.99095 11 4.99095C11.9052 4.99095 12.6976 5.59895 12.9318 6.47331C13.1661 7.34768 12.7839 8.2704 12 8.723V13C11.9963 14.0855 11.6358 15.1396 10.974 16H13C13.5523 16 14 15.5523 14 15V11.889C15.9724 9.8775 16.5451 6.87889 15.453 4.28203C14.3609 1.68517 11.8172 -0.00277014 9 3.41287e-06Z" fill="white"/>
</svg>
