<svg width="37" height="33" viewBox="0 0 37 33" fill="none" xmlns="http://www.w3.org/2000/svg">
<path d="M1.38704 24.0724V25.6602L0.625946 25.5073C0.262147 25.4336 0 25.1156 0 24.7442C0 24.2531 0.448933 23.8856 0.929965 23.9828L1.38704 24.0724Z" fill="white"/>
<path d="M34.2501 24.0724V25.6602L35.0114 25.5073C35.375 25.4336 35.6373 25.1156 35.6373 24.7442C35.6373 24.2531 35.1882 23.8856 34.7071 23.9828L34.2501 24.0724Z" fill="white"/>
<path d="M15.0362 24.7402V24.3843C15.0362 24.2136 15.1753 24.0743 15.346 24.0743H20.1554C20.3264 24.0743 20.4655 24.2136 20.4655 24.3843V24.7402C20.4655 24.911 20.3264 25.0501 20.1554 25.0501H15.346C15.1753 25.0522 15.0362 24.9131 15.0362 24.7402Z" fill="white"/>
<path d="M8.24546 31.0957C4.70401 31.0957 1.83224 28.224 1.83224 24.6825C1.83224 21.1411 4.70401 18.2693 8.24546 18.2693C11.7869 18.2693 14.6585 21.1411 14.6585 24.6825C14.6585 28.224 11.7869 31.0957 8.24546 31.0957ZM8.24546 17.226C4.12761 17.226 0.788757 20.5647 0.788757 24.6825C0.788757 28.8004 4.12761 32.139 8.24546 32.139C12.3631 32.139 15.7019 28.8004 15.7019 24.6825C15.7019 20.5647 12.3652 17.226 8.24546 17.226Z" fill="white"/>
<path d="M27.3258 31.0957C23.7844 31.0957 20.9129 28.224 20.9129 24.6825C20.9129 21.1411 23.7844 18.2693 27.3258 18.2693C30.8673 18.2693 33.7391 21.1411 33.7391 24.6825C33.7391 28.224 30.8673 31.0957 27.3258 31.0957ZM27.3258 17.226C23.2082 17.226 19.8691 20.5647 19.8691 24.6825C19.8691 28.8004 23.2082 32.139 27.3258 32.139C31.4437 32.139 34.7825 28.8004 34.7825 24.6825C34.7844 20.5647 31.4458 17.226 27.3258 17.226Z" fill="white"/>
<path d="M6.68606 17.3914C6.59813 17.6901 6.51184 17.9925 6.43019 18.2958L6.36157 18.551C6.95728 18.3681 7.58974 18.2693 8.24546 18.2693C9.67576 18.2693 10.9965 18.7382 12.0635 19.53L12.083 19.4956C12.2451 19.2083 12.4119 18.9169 12.5848 18.6203C11.3626 17.7434 9.86511 17.226 8.24546 17.226C7.71023 17.226 7.18919 17.2842 6.68606 17.3914Z" fill="#0E185F"/>
<path d="M7.4246 25.9835C7.41181 25.9832 7.39902 25.983 7.38622 25.9828C7.44786 25.9177 7.50974 25.853 7.57207 25.7886C7.4046 27.2284 7.3404 28.695 7.38552 30.1802C7.38273 30.1781 7.38017 30.1758 7.37762 30.1737C7.43274 30.1625 7.48811 30.1513 7.54323 30.1402C7.48857 30.1565 7.43414 30.1727 7.37948 30.1893C7.37715 30.19 7.37482 30.1909 7.3725 30.1916C7.37226 30.1886 7.3718 30.1858 7.37157 30.1827C7.21851 28.7162 7.17199 27.2517 7.22945 25.7981C7.232 25.7371 7.23456 25.6762 7.23735 25.6153C7.26596 25.6097 7.43065 25.6053 7.45508 25.6011C7.44414 25.7285 7.43391 25.8558 7.4246 25.9835Z" fill="white"/>
<path d="M35.2873 5.3847C35.7579 5.17326 35.9846 4.82877 36.0156 4.42775C34.9384 5.23769 33.519 5.44843 33.1745 4.26376C33.1824 4.2954 32.5683 6.72871 35.2873 5.3847Z" fill="white"/>
<path d="M36.9474 3.29543C37.3793 2.4613 35.0851 1.14357 32.4999 0.570195C29.9454 -0.0880847 27.1002 -0.00225383 27.1318 0.0105396C27.149 0.0207743 27.166 0.0307757 27.1832 0.0410104C20.8011 0.20686 15.0215 4.18329 11.7034 8.95523C11.2812 10.1455 10.9377 11.3406 10.6702 12.532C10.6167 11.9275 10.5808 11.315 10.5639 10.6956C8.69601 13.8116 7.64742 17.0544 6.98146 19.9224C5.75492 25.9965 7.44388 27.6978 7.31479 27.6585C7.32642 27.6664 8.01285 25.5664 9.25474 22.9215C8.98701 23.0378 8.71974 23.1587 8.45317 23.2848C8.83046 22.9033 9.21496 22.5386 9.60551 22.1901C10.4817 20.3872 11.5959 18.4156 12.7748 16.4843C13.0225 16.0772 13.4656 15.3966 14.092 14.5639C13.5087 14.7828 12.9253 15.0263 12.344 15.295C13.3577 14.3738 14.4184 13.5483 15.5103 12.8191C18.9307 8.64959 25.33 5.31051 29.891 3.24379C30.6695 2.83114 32.3492 1.99515 33.2947 2.03841C34.8609 2.08145 36.1151 3.43313 36.0155 4.42776C36.4019 4.13165 36.7445 3.75017 36.9474 3.29543Z" fill="white"/>
<path d="M18.7533 5.17468C11.6773 10.4293 7.62881 18.8441 7.31479 27.6585C7.01751 23.2481 7.96934 18.7857 9.95209 14.8367C11.9404 10.9078 14.9571 7.37864 18.7533 5.17468Z" fill="#0E185F"/>
<rect x="26" y="23.4215" width="0.892562" height="5.57851" fill="#FF0000"/>
<rect x="27.4876" y="20" width="0.892562" height="6.47107" fill="#518E92"/>
</svg>
