<svg width="314" height="272" viewBox="0 0 314 272" fill="none" xmlns="http://www.w3.org/2000/svg">
<path d="M11.7388 203.73V217.168L5.29753 215.875C2.21862 215.251 0 212.56 0 209.416C0 205.26 3.79943 202.15 7.87052 202.973L11.7388 203.73Z" fill="white"/>
<path d="M289.867 203.73V217.168L296.31 215.875C299.387 215.251 301.607 212.56 301.607 209.416C301.607 205.26 297.806 202.15 293.735 202.973L289.867 203.73Z" fill="white"/>
<path d="M127.255 209.382V206.37C127.255 204.925 128.432 203.746 129.877 203.746H170.58C172.027 203.746 173.205 204.925 173.205 206.37V209.382C173.205 210.827 172.027 212.005 170.58 212.005H129.877C128.432 212.022 127.255 210.845 127.255 209.382Z" fill="white"/>
<path d="M69.7834 263.171C39.8113 263.171 15.5068 238.866 15.5068 208.894C15.5068 178.922 39.8113 154.617 69.7834 154.617C99.7555 154.617 124.058 178.922 124.058 208.894C124.058 238.866 99.7555 263.171 69.7834 263.171ZM69.7834 145.788C34.933 145.788 6.67554 174.044 6.67554 208.894C6.67554 243.744 34.933 272 69.7834 272C104.632 272 132.889 243.744 132.889 208.894C132.889 174.044 104.65 145.788 69.7834 145.788Z" fill="#0017FF"/>
<g filter="url(#filter0_b_1_78)">
<path d="M231.265 263.171C201.293 263.171 176.99 238.866 176.99 208.894C176.99 178.922 201.293 154.617 231.265 154.617C261.237 154.617 285.541 178.922 285.541 208.894C285.541 238.866 261.237 263.171 231.265 263.171ZM231.265 145.788C196.416 145.788 168.157 174.044 168.157 208.894C168.157 243.744 196.416 272 231.265 272C266.115 272 294.373 243.744 294.373 208.894C294.388 174.044 266.133 145.788 231.265 145.788Z" fill="#0017FF"/>
</g>
<path d="M56.5858 147.188C55.8417 149.716 55.1113 152.275 54.4203 154.842L53.8396 157.001C58.8812 155.454 64.2339 154.617 69.7834 154.617C81.8884 154.617 93.0662 158.586 102.096 165.287L102.262 164.996C103.634 162.565 105.045 160.098 106.508 157.588C96.1648 150.166 83.4909 145.788 69.7834 145.788C65.2536 145.788 60.8439 146.28 56.5858 147.188Z" fill="#0E185F"/>
<path d="M62.8362 219.905C62.7279 219.903 62.6197 219.901 62.5114 219.899C63.0331 219.347 63.5567 218.8 64.0843 218.255C62.6669 230.441 62.1236 242.853 62.5055 255.422C62.4819 255.405 62.4602 255.385 62.4385 255.367C62.9051 255.273 63.3736 255.178 63.8402 255.084C63.3776 255.221 62.9169 255.359 62.4543 255.499C62.4346 255.505 62.4149 255.513 62.3952 255.519C62.3933 255.493 62.3893 255.47 62.3874 255.444C61.092 243.032 60.6983 230.637 61.1846 218.336C61.2062 217.82 61.2279 217.304 61.2515 216.788C61.4936 216.741 62.8874 216.704 63.0941 216.668C63.0016 217.747 62.9149 218.824 62.8362 219.905Z" fill="white"/>
<path d="M298.645 45.5721C302.627 43.7826 304.546 40.8671 304.808 37.4732C295.692 44.3279 283.679 46.1115 280.764 36.0853C280.831 36.3531 275.633 56.9467 298.645 45.5721Z" fill="white"/>
<path d="M312.695 27.89C316.35 20.8305 296.934 9.67833 275.055 4.82569C253.435 -0.745482 229.355 -0.0190747 229.623 0.0891991C229.769 0.175818 229.912 0.260462 230.058 0.347081C176.045 1.7507 127.131 35.4042 99.0488 75.7903C95.4758 85.8637 92.5681 95.9784 90.3042 106.062C89.8514 100.945 89.5483 95.7619 89.4046 90.5194C73.5966 116.891 64.7221 144.335 59.0859 168.608C48.7054 220.015 62.9995 234.413 61.907 234.081C62.0054 234.148 67.8148 216.375 78.3252 193.99C76.0594 194.974 73.7974 195.998 71.5414 197.065C74.7344 193.836 77.9886 190.749 81.2939 187.8C88.7097 172.542 98.1393 155.856 108.116 139.51C110.213 136.065 113.963 130.305 119.264 123.257C114.327 125.11 109.39 127.171 104.47 129.445C113.05 121.649 122.026 114.663 131.267 108.491C160.216 73.2035 214.374 44.9441 252.975 27.4529C259.564 23.9606 273.779 16.8854 281.781 17.2516C295.036 17.6158 305.651 29.0554 304.808 37.4732C308.078 34.9671 310.978 31.7386 312.695 27.89Z" fill="white"/>
<path d="M158.714 43.7944C98.8283 88.2654 64.5646 159.482 61.907 234.081C59.3911 196.754 67.4466 158.988 84.2271 125.567C101.055 92.3148 126.586 62.447 158.714 43.7944Z" fill="#0E185F"/>
<rect x="219.484" y="201.611" width="8.57917" height="53.6198" fill="#FF0000"/>
<rect x="233.782" y="168.724" width="8.57917" height="62.199" fill="#518E92"/>
<defs>
<filter id="filter0_b_1_78" x="165.057" y="142.688" width="132.416" height="132.412" filterUnits="userSpaceOnUse" color-interpolation-filters="sRGB">
<feFlood flood-opacity="0" result="BackgroundImageFix"/>
<feGaussianBlur in="BackgroundImageFix" stdDeviation="1.55"/>
<feComposite in2="SourceAlpha" operator="in" result="effect1_backgroundBlur_1_78"/>
<feBlend mode="normal" in="SourceGraphic" in2="effect1_backgroundBlur_1_78" result="shape"/>
</filter>
</defs>
</svg>
