<svg width="37" height="32" viewBox="0 0 37 32" fill="none" xmlns="http://www.w3.org/2000/svg">
<path d="M1.38104 23.9683V25.5492L0.623239 25.397C0.261014 25.3236 0 25.007 0 24.6371C0 24.1482 0.446991 23.7823 0.925943 23.8791L1.38104 23.9683Z" fill="white"/>
<path d="M34.1018 23.9683V25.5492L34.8598 25.397C35.2218 25.3236 35.4831 25.007 35.4831 24.6371C35.4831 24.1482 35.0359 23.7823 34.5569 23.8791L34.1018 23.9683Z" fill="white"/>
<path d="M14.9711 24.6332V24.2789C14.9711 24.1089 15.1096 23.9701 15.2796 23.9701H20.0682C20.2384 23.9701 20.3769 24.1089 20.3769 24.2789V24.6332C20.3769 24.8032 20.2384 24.9417 20.0682 24.9417H15.2796C15.1096 24.9438 14.9711 24.8053 14.9711 24.6332Z" fill="white"/>
<path d="M8.20973 30.9613C4.6836 30.9613 1.82424 28.1019 1.82424 24.5758C1.82424 21.0497 4.6836 18.1903 8.20973 18.1903C11.7359 18.1903 14.595 21.0497 14.595 24.5758C14.595 28.1019 11.7359 30.9613 8.20973 30.9613ZM8.20973 17.1516C4.10969 17.1516 0.785278 20.4758 0.785278 24.5758C0.785278 28.6758 4.10969 32 8.20973 32C12.3095 32 15.634 28.6758 15.634 24.5758C15.634 20.4758 12.3116 17.1516 8.20973 17.1516Z" fill="white"/>
<path d="M27.2076 30.9613C23.6815 30.9613 20.8224 28.1019 20.8224 24.5758C20.8224 21.0497 23.6815 18.1903 27.2076 18.1903C30.7338 18.1903 33.5931 21.0497 33.5931 24.5758C33.5931 28.1019 30.7338 30.9613 27.2076 30.9613ZM27.2076 17.1516C23.1078 17.1516 19.7832 20.4758 19.7832 24.5758C19.7832 28.6758 23.1078 32 27.2076 32C31.3077 32 34.6321 28.6758 34.6321 24.5758C34.634 20.4758 31.3098 17.1516 27.2076 17.1516Z" fill="white"/>
<path d="M6.65719 17.3162C6.56964 17.6136 6.48372 17.9147 6.40243 18.2167L6.33411 18.4708C6.92724 18.2887 7.55696 18.1903 8.20985 18.1903C9.63397 18.1903 10.949 18.6572 12.0114 19.4456L12.0308 19.4113C12.1922 19.1253 12.3583 18.8351 12.5304 18.5398C11.3135 17.6667 9.82249 17.1516 8.20985 17.1516C7.67693 17.1516 7.15814 17.2095 6.65719 17.3162Z" fill="#0E185F"/>
<path d="M7.39253 25.8711C7.37979 25.8709 7.36705 25.8706 7.35431 25.8704C7.41569 25.8056 7.47729 25.7412 7.53936 25.677C7.37261 27.1106 7.30869 28.5709 7.35362 30.0497C7.35084 30.0476 7.34829 30.0453 7.34574 30.0432C7.40063 30.0321 7.45576 30.0209 7.51065 30.0098C7.45622 30.026 7.40202 30.0423 7.3476 30.0587C7.34528 30.0594 7.34296 30.0603 7.34065 30.061C7.34042 30.058 7.33995 30.0552 7.33972 30.0522C7.18733 28.592 7.14101 27.1338 7.19822 25.6865C7.20076 25.6258 7.20331 25.5652 7.20609 25.5045C7.23458 25.4989 7.39855 25.4945 7.42287 25.4904C7.41198 25.6173 7.40179 25.744 7.39253 25.8711Z" fill="white"/>
<path d="M35.1347 5.36142C35.6033 5.15089 35.8291 4.80789 35.8599 4.40861C34.7873 5.21505 33.3741 5.42488 33.0311 4.24533C33.039 4.27683 32.4275 6.69961 35.1347 5.36142Z" fill="white"/>
<path d="M36.7877 3.28117C37.2178 2.45065 34.9335 1.13863 32.3595 0.567729C29.816 -0.0877037 26.9831 -0.00224408 27.0146 0.010494C27.0317 0.0206845 27.0486 0.0306426 27.0657 0.0408331C20.7113 0.205965 14.9567 4.16519 11.6529 8.9165C11.2325 10.1016 10.8905 11.2916 10.6241 12.4778C10.5709 11.8759 10.5352 11.2661 10.5183 10.6493C8.65852 13.7519 7.61446 16.9806 6.95138 19.8363C5.73015 25.8841 7.4118 27.578 7.28327 27.5389C7.29485 27.5468 7.9783 25.4559 9.21483 22.8223C8.94825 22.9381 8.68214 23.0586 8.41672 23.1841C8.79238 22.8043 9.17522 22.4411 9.56408 22.0942C10.4365 20.299 11.5459 18.336 12.7197 16.413C12.9663 16.0077 13.4075 15.33 14.0312 14.5009C13.4504 14.7188 12.8695 14.9613 12.2907 15.2288C13.3 14.3117 14.3561 13.4897 15.4433 12.7636C18.849 8.61218 25.2206 5.28754 29.7618 3.22976C30.537 2.8189 32.2094 1.98652 33.1508 2.0296C34.7102 2.07244 35.959 3.41828 35.8599 4.40861C36.2446 4.11378 36.5857 3.73396 36.7877 3.28117Z" fill="white"/>
<path d="M18.6722 5.15228C11.6269 10.3842 7.59585 18.7626 7.28318 27.5389C6.9872 23.1475 7.93491 18.7044 9.90908 14.7725C11.8888 10.8606 14.8925 7.34671 18.6722 5.15228Z" fill="#0E185F"/>
<rect x="25.8218" y="23.7189" width="1.00931" height="6.30822" fill="#FF0000"/>
<rect x="27.5038" y="19.8499" width="1.00931" height="7.31753" fill="#518E92"/>
</svg>
